<svg version="1.2" xmlns="http://www.w3.org/2000/svg" viewBox="0 0 233 22" width="233" height="22">
	<title>New Project</title>
	<style>
		.s0 { fill: #000000 } 
	</style>
	<path id="VIOEDGE" class="s0" aria-label="VIOEDGE"  d="m65.8 1.4l-6.6 15.1-6.5-15.1h-3.9l8.5 19.6h3.6l8.6-19.6zm5.7 19.6h3.6v-19.6h-3.6zm18.1 0.3c6 0 10.5-4.3 10.5-10.1 0-5.8-4.5-10.1-10.5-10.1-6.1 0-10.6 4.3-10.6 10.1 0 5.8 4.5 10.1 10.6 10.1zm0-3.2c-4 0-6.9-2.9-6.9-6.9 0-4 2.9-6.9 6.9-6.9 3.9 0 6.9 2.9 6.9 6.9 0 4-3 6.9-6.9 6.9zm18-0.2v-5.4h9.5v-3h-9.5v-5h10.7v-3.1h-14.3v19.6h14.7v-3.1zm15.1 3.1h8.6c6.3 0 10.7-3.9 10.7-9.8 0-5.9-4.4-9.8-10.7-9.8h-8.6zm3.6-3.1v-13.4h4.8c4.4 0 7.2 2.6 7.2 6.7 0 4.1-2.8 6.7-7.2 6.7zm32.9-0.8c-1.3 0.7-2.7 1-4.1 1-4.1 0-7-2.9-7-6.9 0-4.1 2.9-6.9 7.1-6.9 2.1 0 3.8 0.7 5.4 2.3l2.3-2.3c-1.9-2.1-4.6-3.2-7.9-3.2-6.1 0-10.6 4.2-10.6 10.1 0 5.9 4.5 10.1 10.6 10.1 2.7 0 5.6-0.9 7.6-2.5v-7.8h-3.4zm11.9 0.8v-5.4h9.4v-3h-9.4v-5.1h10.6v-3h-14.3v19.6h14.7v-3.1z"/>
</svg>