<svg version="1.2" xmlns="http://www.w3.org/2000/svg" viewBox="0 0 233 22" width="233" height="22">
	<title>logo-slim-svg</title>
	<style>
		.s0 { fill: #ffffff } 
	</style>
	<path id="VIOEDGE" class="s0" aria-label="VIOEDGE"  d="m16.7 1.7l-6.5 14.9-6.4-14.9h-3.9l8.4 19.3h3.5l8.4-19.3zm5.7 19.3h3.6v-19.3h-3.6zm17.8 0.3c6 0 10.4-4.2 10.4-10 0-5.7-4.4-9.9-10.4-9.9-6 0-10.4 4.2-10.4 9.9 0 5.7 4.4 10 10.4 10zm0-3.2c-3.9 0-6.8-2.8-6.8-6.8 0-3.9 2.9-6.8 6.8-6.8 3.9 0 6.8 2.9 6.8 6.8 0 4-2.9 6.8-6.8 6.8zm17.8-0.1v-5.3h9.3v-3h-9.3v-5h10.5v-3h-14.1v19.3h14.5v-3zm14.9 3h8.4c6.3 0 10.6-3.9 10.6-9.7 0-5.8-4.3-9.6-10.6-9.6h-8.4zm3.6-3.1v-13.2h4.7c4.3 0 7.1 2.6 7.1 6.6 0 4-2.8 6.6-7.1 6.6zm32.4-0.8c-1.3 0.7-2.6 1-4 1-4.1 0-7-2.9-7-6.8 0-4 2.9-6.8 7-6.8 2.1 0 3.8 0.7 5.3 2.2l2.3-2.2c-1.8-2-4.5-3.1-7.8-3.1-6 0-10.4 4.2-10.4 9.9 0 5.8 4.4 10 10.4 10 2.7 0 5.5-0.9 7.5-2.5v-7.7h-3.3zm11.6 0.9v-5.4h9.4v-2.9h-9.4v-5h10.6v-3h-14.1v19.3h14.4v-3z"/>
</svg>