<svg version="1.2" xmlns="http://www.w3.org/2000/svg" viewBox="0 0 233 22" width="233" height="22">
	<title>logo-slim-svg</title>
	<style>
		.s0 { fill: #000000 } 
	</style>
	<path id="VIOEDGE" class="s0" aria-label="VIOEDGE"  d="m17.4 1.7l-7 15.9-7-15.9h-3l8.5 19.3h2.8l8.4-19.3zm5.2 19.3h2.8v-19.3h-2.8zm17.3 0.2c5.9 0 10.2-4.2 10.2-9.9 0-5.7-4.3-9.8-10.2-9.8-5.9 0-10.3 4.2-10.3 9.8 0 5.7 4.4 9.9 10.3 9.9zm0-2.4c-4.3 0-7.5-3.2-7.5-7.5 0-4.2 3.2-7.4 7.5-7.4 4.3 0 7.5 3.2 7.5 7.4 0 4.3-3.2 7.5-7.5 7.5zm17.2-0.2v-6.2h9.7v-2.4h-9.7v-5.9h10.9v-2.4h-13.6v19.3h14v-2.4zm15.7 2.4h8.1c6.3 0 10.5-3.9 10.5-9.7 0-5.7-4.2-9.6-10.5-9.6h-8.1zm2.8-2.4v-14.5h5.2c4.8 0 7.8 2.9 7.8 7.2 0 4.4-3 7.3-7.8 7.3zm33.4-1.1c-1.4 0.9-2.9 1.2-4.5 1.2-4.5 0-7.7-3.1-7.7-7.4 0-4.3 3.2-7.4 7.7-7.4 2.2 0 4 0.7 5.6 2.2l1.7-1.7c-1.8-1.9-4.4-3-7.4-3-6 0-10.4 4.2-10.4 9.9 0 5.7 4.4 9.9 10.3 9.9 2.7 0 5.4-0.8 7.3-2.5v-7.5h-2.6zm10.7 1.1v-6.2h9.7v-2.4h-9.7v-5.9h10.8v-2.4h-13.6v19.3h14v-2.4z"/>
</svg>