<svg version="1.2" xmlns="http://www.w3.org/2000/svg" viewBox="0 0 233 22" width="233" height="22">
	<title>logo-slim-svg</title>
	<style>
		.s0 { fill: #ffffff } 
	</style>
	<path id="VIOEDGE" class="s0" aria-label="VIOEDGE"  d="m17.6 1.7l-7.5 16.8-7.4-16.8h-2.2l8.6 19.3h2l8.6-19.3zm4.8 19.3h2.1v-19.3h-2.1zm16.8 0.2c5.8 0 10.1-4.2 10.1-9.9 0-5.6-4.3-9.8-10.1-9.8-5.9 0-10.2 4.2-10.2 9.8 0 5.7 4.3 9.9 10.2 9.9zm0-1.9c-4.7 0-8.1-3.4-8.1-8 0-4.6 3.4-8 8.1-8 4.6 0 8.1 3.4 8.1 8 0 4.6-3.5 8-8.1 8zm16.7-0.1v-7.1h10v-1.8h-10v-6.9h11.2v-1.7h-13.2v19.3h13.7v-1.8zm16.4 1.8h7.8c6.2 0 10.4-4 10.4-9.7 0-5.7-4.2-9.6-10.4-9.6h-7.8zm2-1.8v-15.8h5.7c5.1 0 8.5 3.3 8.5 7.9 0 4.7-3.4 7.9-8.5 7.9zm34.4-1.4c-1.5 1.1-3.2 1.5-5.1 1.5-4.7 0-8.2-3.4-8.2-8 0-4.6 3.5-8 8.2-8 2.3 0 4.2 0.7 5.9 2.3l1.2-1.3c-1.7-1.9-4.2-2.8-7.1-2.8-5.9 0-10.2 4.2-10.2 9.8 0 5.7 4.3 9.8 10.1 9.8 2.7 0 5.3-0.8 7.1-2.4v-7.4h-1.9zm9.7 1.4v-7.2h10v-1.7h-10v-6.9h11.2v-1.7h-13.2v19.3h13.6v-1.8z"/>
</svg>