<svg version="1.2" xmlns="http://www.w3.org/2000/svg" viewBox="0 0 233 22" width="233" height="22">
	<title>New Project</title>
	<style>
		.s0 { fill: #000000 } 
	</style>
	<path id="VIOEDGE" class="s0" aria-label="VIOEDGE"  d="m69.4 1.4l-7.7 19.6h-5.2l-7.6-19.6h5.3l5 14.4 5-14.4zm6.9 0v19.6h-4.9v-19.6zm13.2-0.2q4.5 0 7.6 2.9 3 2.8 3 7.1 0 4.3-3.1 7.1-3 2.9-7.5 2.9-4.6 0-7.6-2.8-3-2.9-3-7.2 0-4.3 3-7.1 3-2.9 7.6-2.9zm0 4.2q-2.3 0-3.9 1.7-1.6 1.6-1.6 4.1 0 2.5 1.6 4.2 1.7 1.7 3.9 1.7 2.3 0 3.9-1.7 1.6-1.7 1.6-4.2 0-2.5-1.6-4.1-1.6-1.7-3.9-1.7zm28.6-4v3.9h-10.4v3.9h9.4v3.9h-9.4v4h10.7v3.9h-15.7v-19.6zm3.6 19.6v-19.6h8.4q4.6 0 7.5 2.7 2.9 2.7 2.9 7.1 0 4.3-2.9 7.1-3 2.7-7.7 2.7zm8.3-15.6h-3.3v11.6h3.5q2.3 0 3.8-1.6 1.5-1.6 1.5-4.2 0-2.5-1.6-4.2-1.5-1.6-3.9-1.6zm25.8 10.7v-5.1h4.3v7.7q-1.6 1.1-3.8 1.8-2.3 0.7-4.3 0.7-4.5 0-7.5-2.8-3-2.9-3-7.2 0-4.3 3.1-7.1 3.1-2.9 7.7-2.9 2.2 0 4.4 0.8 2.1 0.8 3.6 2.1l-2.8 3.4q-1-0.9-2.4-1.5-1.4-0.6-2.8-0.6-2.4 0-4.1 1.7-1.6 1.6-1.6 4.1 0 2.5 1.7 4.2 1.6 1.7 4 1.7 1.6 0 3.5-1zm23.1-14.7v3.9h-10.3v3.9h9.3v3.9h-9.3v4h10.7v3.9h-15.7v-19.6z"/>
</svg>